<svg xmlns="http://www.w3.org/2000/svg" viewBox="0 0 64 64" role="img" aria-label="ShivShakti Technology">
  <circle cx="32" cy="32" r="32" fill="#e8f1ff"/>
  <circle cx="32" cy="32" r="30" fill="none" stroke="#0052cc" stroke-width="1.5" opacity="0.25"/>
  <path fill="#0052cc" d="M32 10c-1 0-2 .8-2 2v8.2l-7.5 4.3c-1.7 1-2.3 3.2-1.3 4.9.7 1.2 2 1.8 3.3 1.6l5.5-1V44l-6.8 3.9c-1.7 1-2.3 3.2-1.3 4.9.7 1.2 2 1.8 3.3 1.6L32 52l6.3-1.6c1.3.2 2.6-.4 3.3-1.6 1-1.7.4-3.9-1.3-4.9L33 44V30.1l5.5 1c1.3.2 2.6-.4 3.3-1.6 1-1.7.4-3.9-1.3-4.9L34 20.2V12c0-1.2-1-2-2-2z"/>
  <path fill="#003d99" d="M32 18v6l4 2.3-4 2.3V34l4 2.3-4 2.3v6.4l3.2-.8V38.6l-4-2.3 4-2.3v6.4l3.2-.8V28.6l-4-2.3 4-2.3V18z" opacity="0.35"/>
</svg>
